<svg xmlns="http://www.w3.org/2000/svg" xmlns:xlink="http://www.w3.org/1999/xlink" width="16" height="16" viewBox="0 0 16 16"><defs><path id="k7wza" d="M726.202 4620.58v8.838a2.786 2.786 0 0 1-2.784 2.783h-8.836a2.786 2.786 0 0 1-2.784-2.783v-8.837a2.787 2.787 0 0 1 2.784-2.784h8.836a2.787 2.787 0 0 1 2.784 2.784zm-4.008-1.165l.008 2.39 2.408-.007v-2.391h-.315zM716.59 4625a2.413 2.413 0 0 0 2.41 2.409 2.413 2.413 0 0 0 2.41-2.409c0-.535-.413-2.41-2.41-2.41s-2.41 1.875-2.41 2.41zm8.034-1.604h-1.976c.186.457.29 1.08.29 1.604a3.943 3.943 0 0 1-3.938 3.938 3.943 3.943 0 0 1-3.939-3.938c0-.524.105-1.147.29-1.604h-2v5.847c0 .762.62 1.38 1.38 1.38h8.512c.761 0 1.38-.618 1.38-1.38z"/></defs><g><g transform="translate(-711 -4617)"><use fill="#fff" xlink:href="#k7wza"/></g></g></svg>