<svg xmlns="http://www.w3.org/2000/svg" xmlns:xlink="http://www.w3.org/1999/xlink" width="15" height="13" viewBox="0 0 15 13"><defs><path id="neiba" d="M655.002 4620.822c-.56.242-1.16.404-1.792.478a3.051 3.051 0 0 0 1.372-1.675 6.364 6.364 0 0 1-1.98.734 3.16 3.16 0 0 0-2.277-.956c-1.723 0-3.12 1.356-3.12 3.028 0 .237.028.468.081.69a8.945 8.945 0 0 1-6.43-3.164 2.952 2.952 0 0 0-.422 1.522c0 1.05.55 1.978 1.388 2.52a3.187 3.187 0 0 1-1.413-.378v.038c0 1.466 1.075 2.69 2.502 2.968a3.22 3.22 0 0 1-1.409.052c.397 1.203 1.55 2.078 2.914 2.102a6.379 6.379 0 0 1-3.874 1.297c-.252 0-.5-.015-.744-.043a9.02 9.02 0 0 0 4.782 1.36c5.737 0 8.874-4.613 8.874-8.613 0-.131-.002-.263-.008-.392a6.223 6.223 0 0 0 1.556-1.568z"/></defs><g><g transform="translate(-640 -4619)"><use fill="#fff" xlink:href="#neiba"/></g></g></svg>