<svg xmlns="http://www.w3.org/2000/svg" xmlns:xlink="http://www.w3.org/1999/xlink" width="15" height="13" viewBox="0 0 15 13"><defs><path id="g5jda" d="M747.8 4622.599c1.197-.956 2.899-3.053 4.226-3.053 1.326 0 1.651 1.565 1.832 2.986.182 1.42.704 4.526 1.404 4.526.703 0 2.302-2.747 2.21-3.81-.09-1.06-1.247-.902-1.884-.596.585-2.125 1.937-3.252 3.666-3.252 1.73 0 2.146 1.22 2.146 2.72 0 2.284-4.629 9.279-7.424 9.279-1.73 0-2.158-2.548-2.509-3.81-.352-1.26-1.04-4.566-1.847-4.778-.313-.053-1.196.65-1.196.65z"/></defs><g><g transform="translate(-747 -4619)"><use fill="#fff" xlink:href="#g5jda"/></g></g></svg>